<svg xmlns="http://www.w3.org/2000/svg" viewBox="0 0 150.59 169.91"><defs><style>.cls-1{fill:#770010;}</style></defs><title>1</title><g id="レイヤー_2" data-name="レイヤー 2"><g id="chapter-1"><g id="臆病な魔女"><g id="臆"><path class="cls-1" d="M41.17,61a12.09,12.09,0,0,0-3.08-.37A10.13,10.13,0,0,0,35,61.1a1.78,1.78,0,0,0-1.43,1.8V93.8c0,.4.48.7,1.43.9a15.91,15.91,0,0,0,6.15,0c.95-.2,1.42-.5,1.42-.9V61.85C42.59,61.55,42.12,61.27,41.17,61Z"/><path class="cls-1" d="M41.09,25.85h-6a1.33,1.33,0,0,0-1.5,1.5V56.9A1.78,1.78,0,0,0,35,58.7a10.73,10.73,0,0,0,6.15,0c.95-.3,1.42-.6,1.42-.9V27.35A1.33,1.33,0,0,0,41.09,25.85Z"/><path class="cls-1" d="M61.34,57.2a2.71,2.71,0,0,0-1.65,2.7v72.6l.45.9,1,.45a9.15,9.15,0,0,0,3-.8V56.85A4.87,4.87,0,0,0,61.34,57.2Z"/><path class="cls-1" d="M61.57,143.45a3.83,3.83,0,0,0-2-.6,8.55,8.55,0,0,0-2.17,1.72q-1.87,1.73-4.43,3.9a38.71,38.71,0,0,1-5.47,3.9,10.72,10.72,0,0,1-5.33,1.73,1.68,1.68,0,0,1-1.65-1.35,7.83,7.83,0,0,1-.37-1.88c0-.65-.13-1.27-.23-1.87-.2-1.3-.37-2.43-.52-3.38a15.24,15.24,0,0,0-.68-2.7,15.62,15.62,0,0,0-1.12-2.47c-.45-.8-1-1.8-1.73-3s-.87-2-.22-2.33a8.92,8.92,0,0,1,2.47-.82,17.1,17.1,0,0,0,3-.9,2.45,2.45,0,0,0,1.5-2.55V98.3a1.33,1.33,0,0,0-1.5-1.5c-.5,0-1.12,0-1.87-.08s-1.53-.07-2.33-.07a7.34,7.34,0,0,0-2.17.3,2.42,2.42,0,0,0-1.43,1,7.19,7.19,0,0,0-.75,2.1c-.2.9-.37,1.87-.52,2.92s-.28,2.08-.38,3.08-.2,1.8-.3,2.4q-.9,4.8-2.4,10.72a104.62,104.62,0,0,1-3.67,11.63A64.59,64.59,0,0,1,20,141.57a30.14,30.14,0,0,1-7.13,8.18,7.4,7.4,0,0,1-.6.45,1.55,1.55,0,0,1-.75.3c-.6,0-.9-.36-.9-1.05a20.63,20.63,0,0,1,1.13-6.53q1.13-3.37,1.87-6.37a110.5,110.5,0,0,0,2.48-11.18,68.76,68.76,0,0,0,1-11.47V18.2a2.85,2.85,0,0,1,.23-1.13.93.93,0,0,1,1-.52,10.28,10.28,0,0,1,3.23,1q2.32,1,5.25,2.25A58.33,58.33,0,0,0,32.84,22a20.31,20.31,0,0,0,6,1,4.38,4.38,0,0,0,2.78-1.2,21.7,21.7,0,0,0,2.62-2.63c.8-1,1.6-1.82,2.4-2.62a3.29,3.29,0,0,1,2.1-1.2,9.8,9.8,0,0,1,2.33,1.42q2,1.43,4.42,3.23t4.43,3.37a14.67,14.67,0,0,1,2.32,2c.5.9.65,1.52.45,1.87a2,2,0,0,1-1,.83c-.45.2-.93.4-1.43.6a1.17,1.17,0,0,0-.75,1.2v24c0,.6.38.92,1.13,1S62,55,62.39,55h1.85V0H0V169.91H64.24V145.34c-.21-.16-.43-.3-.65-.47A19.88,19.88,0,0,0,61.57,143.45Z"/><path class="cls-1" d="M65.77,146.3a5.27,5.27,0,0,0,2.47.6,8.86,8.86,0,0,0,6.15-2,11.32,11.32,0,0,0,3.23-5.1,20.27,20.27,0,0,0,.9-6.6,44.94,44.94,0,0,0-.6-6.6,21.68,21.68,0,0,0-1.43-5.1c-.6-1.35-1.15-2-1.65-2s-1.07.72-1.72,2.17a46.2,46.2,0,0,1-2.55,4.8,25.33,25.33,0,0,1-3.83,4.88,8.56,8.56,0,0,1-2.5,1.75v12.29A15.56,15.56,0,0,0,65.77,146.3Z"/><polygon class="cls-1" points="119.09 83.9 119.54 83.3 119.09 82.85 90.14 82.85 89.54 83.3 90.14 83.9 119.09 83.9"/><path class="cls-1" d="M148.57,129.05a26.15,26.15,0,0,0-5.25-6.75,29.18,29.18,0,0,0-7-4.88,16.83,16.83,0,0,0-7.43-1.87q-1.35,0-1.35,1.5a22.4,22.4,0,0,0,1,5.62q1,3.52,2.4,7.28t3.07,7.12a36.27,36.27,0,0,0,2.85,5,18.14,18.14,0,0,0,2.7,2.7,5.64,5.64,0,0,0,3.6,1.2,6.14,6.14,0,0,0,5.63-3.15,12.46,12.46,0,0,0,1.87-6.45A15.4,15.4,0,0,0,148.57,129.05Z"/><path class="cls-1" d="M126.37,134.75a38.16,38.16,0,0,0-2-4.05q-1.05-1.8-1.5-1.8a2,2,0,0,0-1.42.67c-.45.45-.93,1-1.43,1.58a16.09,16.09,0,0,0-1.35,1.87,8.14,8.14,0,0,1-1,1.43,7.55,7.55,0,0,1-3.9,2,22.2,22.2,0,0,1-5.4.68,16.66,16.66,0,0,1-4.72-.6c-1.35-.4-2-1-2-1.65V119.45l.45-1,.15-.15,1-.45a3.86,3.86,0,0,1,2.18,1.27,23,23,0,0,1,1.57,2.1,9.29,9.29,0,0,0,1.73,2,3.92,3.92,0,0,0,2.62.83,9,9,0,0,0,5.48-1.5q2-1.5,2-5.25a8.92,8.92,0,0,0-2.4-6.6,14.41,14.41,0,0,0-5.92-3.53,30,30,0,0,0-7.43-1.35q-3.9-.23-6.9-.22a.53.53,0,0,0-.6.6,2.71,2.71,0,0,0,.9,1.57c.6.65,1.28,1.33,2,2a28.52,28.52,0,0,1,2.1,2.17,3.27,3.27,0,0,1,1,2,.8.8,0,0,1-.6.9,4.93,4.93,0,0,1-1.2.15,44.63,44.63,0,0,1-7.35-.6,44.63,44.63,0,0,0-7.35-.6l-.45.6q.3,7.5.45,14.77t.45,14.78a5.78,5.78,0,0,0,2.33,4.8,13,13,0,0,0,5.17,2,28.5,28.5,0,0,0,6.15.38q3.15-.15,5.4-.15,2.7,0,6.83.15a39.34,39.34,0,0,0,8-.53,17,17,0,0,0,6.68-2.55c1.85-1.25,2.77-3.28,2.77-6.07a12.08,12.08,0,0,0-.75-2.78Q127.34,137,126.37,134.75Z"/><path class="cls-1" d="M86.47,100.62c.45-.55.82-.82,1.12-.82h33.3a1.81,1.81,0,0,1,1.73,1.35,11.8,11.8,0,0,1,.67,2.25l.9.45h3.45c1.7,0,3.48,0,5.33-.15a43,43,0,0,0,4.95-.53c1.45-.25,2.17-.67,2.17-1.27V73.7a1.63,1.63,0,0,1,.75-1.2,18,18,0,0,1,1.58-1.13c.55-.35,1.07-.7,1.57-1.05s.75-.67.75-1c0-.5-.65-1.28-2-2.33a43.8,43.8,0,0,0-4.5-3.15q-2.55-1.57-4.87-2.77a8.92,8.92,0,0,0-3.23-1.2,3.39,3.39,0,0,0-2.62,1.27c-.75.85-1.48,1.75-2.18,2.7s-1.42,1.85-2.17,2.7a3.42,3.42,0,0,1-2.63,1.28h-30a28.47,28.47,0,0,1-5-.68,48.54,48.54,0,0,1-6.75-1.87,23,23,0,0,1-5.85-3q-2.48-1.8-2.48-3.9a1.86,1.86,0,0,1,2.1-2.1h76.5a.66.66,0,0,0,.75-.75,10.38,10.38,0,0,0-2.32-2.63q-2-1.87-4.5-3.9t-4.58-3.52a8.36,8.36,0,0,0-2.55-1.5,4.61,4.61,0,0,0-2.4,1.42,15.61,15.61,0,0,0-2,2.63l-1.8,3a12.47,12.47,0,0,1-1.8,2.4,5.36,5.36,0,0,1-2.25.52q-1.95.22-4.2.45c-1.5.15-2.95.28-4.35.38s-2.3.15-2.7.15a9.37,9.37,0,0,1-2-.23,1.27,1.27,0,0,1-1-1.42q0-1.35,3.15-3.6t7-4.73q3.83-2.47,7.05-4.65T132,37.1a3.09,3.09,0,0,0-2.32-1.35,5,5,0,0,1-2.78-1.35l.15-1,1-.45c1,0,2.33,0,4-.08s3.37-.12,5.17-.22,3.53-.25,5.18-.45a17,17,0,0,0,3.67-.75q.9-.3.9-.9c0-.4-.67-1.23-2-2.48s-2.88-2.57-4.58-4S137,21.4,135.44,20.3a9,9,0,0,0-3-1.65,1.85,1.85,0,0,0-1.5.75q-1.65,2.1-2.7,3.75a9.46,9.46,0,0,1-3.45,3,22.59,22.59,0,0,1-2.85,1.5c-1.3.6-2.62,1.25-4,2a29.78,29.78,0,0,0-3.6,2.17,4.83,4.83,0,0,0-1.88,2c-.2.9-.42,2.5-.67,4.8s-.6,4.65-1,7A30,30,0,0,1,108.89,52c-.8,1.85-1.8,2.78-3,2.78H95.09l-1-.45a2,2,0,0,1-.45-1.73,12,12,0,0,1,.6-2.4c.3-.85.63-1.67,1-2.47a5.35,5.35,0,0,0,.52-2.1,5.76,5.76,0,0,0-1.27-3.6,28,28,0,0,0-2.85-3.15Q90,37.4,88.72,36.05a4,4,0,0,1-1.28-2.7A1.47,1.47,0,0,1,88.19,32c.4-.3,1.78-.38,4.13-.23s4.87.25,7.57.3a56.26,56.26,0,0,0,7.35-.3c2.2-.25,3.3-.87,3.3-1.87v-10a3.33,3.33,0,0,1,1.35-2.4q1.35-1.2,1.35-1.8,0-.3-.45-.45a5.82,5.82,0,0,1-.75-.3c-1.2-.3-2.62-.6-4.27-.9s-3.35-.53-5.1-.68-3.48-.27-5.18-.37-3.2-.15-4.5-.15c-1.1,0-1.67.9-1.72,2.7a47.86,47.86,0,0,0,.22,5.85,48,48,0,0,1,.23,5.85c0,1.8-.63,2.7-1.73,2.7H65.24a.75.75,0,0,0,0,1.5c1.2.2,2.38.35,3.53.45a11.79,11.79,0,0,1,3.52.9,12.47,12.47,0,0,1,5.33,3.3,13.85,13.85,0,0,1,2.77,4.65,19.53,19.53,0,0,1,1,5.55q.15,3,.15,6.15,0,1.2-1.5,1.5a23.1,23.1,0,0,1-4,.6l-4.65.3Q69,55,66.59,55H64.24v1.9a4.66,4.66,0,0,1,.63.12,7.14,7.14,0,0,1,3.52,2.55A8.43,8.43,0,0,1,70,65q0,9.9-.07,19.87t.22,20a.91.91,0,0,1-.15.52c-.1.15-.05.33.15.53a4.15,4.15,0,0,0,2.18.75,20.5,20.5,0,0,0,3.07.07,16,16,0,0,0,3.15-.45c1-.25,1.8-.47,2.4-.67a5.64,5.64,0,0,0,2-1.28q1.05-1,2-2C85.49,101.77,86,101.17,86.47,100.62Zm.07-29.32A1.33,1.33,0,0,1,88,69.8h33a1.33,1.33,0,0,1,1.5,1.5v24a1.33,1.33,0,0,1-1.5,1.5H88a1.33,1.33,0,0,1-1.5-1.5Z"/></g></g></g></g></svg>