<svg xmlns="http://www.w3.org/2000/svg" viewBox="0 0 148.33 157.58"><defs><style>.cls-1{fill:#770010;}</style></defs><title>2</title><g id="レイヤー_2" data-name="レイヤー 2"><g id="chapter-1"><g id="臆病な魔女"><g id="病"><path class="cls-1" d="M96.66,0V26.35H113a4.36,4.36,0,0,0,3.67-2,26.18,26.18,0,0,0,2.55-4.35q1.13-2.4,2.25-4.5a3.71,3.71,0,0,1,2.93-2.25l1.05.3a18.09,18.09,0,0,0,3.07,2.92q2.47,2,5,4.2c1.7,1.45,3.22,2.78,4.58,4s2,1.95,2,2.25-.2.5-.6.9l-1.05.45H96.66V47.8H112.5c.7,0,1.6-.63,2.7-1.88s2.22-2.62,3.38-4.12,2.22-2.88,3.22-4.13,1.8-1.87,2.4-1.87a7.59,7.59,0,0,1,2.47,1.57c1.36,1.05,2.83,2.23,4.43,3.53l4.65,3.75,3,2.4.3.75-.3.75-.3.3-1,.45H100.65a1.8,1.8,0,0,0-1.73,1.05,8.83,8.83,0,0,0-.75,2.55A21.06,21.06,0,0,0,98,55.82V58q0,3.45.15,6.67A50.22,50.22,0,0,1,98,71.35a78.16,78.16,0,0,1-1.29,7.94v78.29h51.67V0Zm42.17,74.42c-.45.25-1,.55-1.5.9a8.41,8.41,0,0,0-1.5,1.2,2.35,2.35,0,0,0-.68,1.73v51a15,15,0,0,1-1.89,7.72,17,17,0,0,1-5,5.4,23.51,23.51,0,0,1-7,3.3,32.52,32.52,0,0,1-7.76,1.28,3.34,3.34,0,0,1-1.2-.15,1.92,1.92,0,0,1-.6-1.05c-.3-.81-.55-1.58-.75-2.33s-.45-1.52-.75-2.32a11.62,11.62,0,0,0-2.78-4.43c-1.25-1.25-2.47-2.58-3.67-4a10.63,10.63,0,0,0-.68-.9,1.59,1.59,0,0,1-.37-1.05c0-.6.53-1,1.58-1.13a34.85,34.85,0,0,1,3.59-.3l4-.15a4.78,4.78,0,0,0,2.7-.67,1.83,1.83,0,0,0,.9-1c.1-.35.25-.77.45-1.27a45.46,45.46,0,0,0,1-6.83c.16-2.25.23-4.52.23-6.82,0-1.3-.37-2-1.12-2.18a5.82,5.82,0,0,0-2.7.23,26.52,26.52,0,0,0-3.16,1.12,6.84,6.84,0,0,1-2.47.68,7.69,7.69,0,0,1-5.55-1.88,12.34,12.34,0,0,1-3-4.72,21.92,21.92,0,0,1-1.27-6.08c-.16-2.15-.23-4.07-.23-5.77,0-.4,0-1-.07-1.88a19.09,19.09,0,0,1,0-2.62A7.88,7.88,0,0,1,98,87.1a1.32,1.32,0,0,1,1.27-1,7.74,7.74,0,0,1,3.15.82A27.13,27.13,0,0,1,106,88.82c1.15.75,2.25,1.55,3.31,2.4s1.92,1.58,2.62,2.18a8.62,8.62,0,0,1,1.35,1.35A5.07,5.07,0,0,0,114.6,96a1,1,0,0,0,.52.22,3.38,3.38,0,0,0,.53.08c.9-.1,1.35-.78,1.35-2V87.55q0-2.7-.15-5.55c-.1-1.9-.2-3.68-.3-5.33a12.78,12.78,0,0,0-.45-3.22l-.45-.9q-.15-.3-.9-.3c-.8,0-1.87,0-3.22.15s-2.78.15-4.28.15a26.26,26.26,0,0,1-4.13-.3,3.49,3.49,0,0,1-2.47-1.2,7.75,7.75,0,0,1,2-.23c1.15,0,2.43-.07,3.83-.07H113c.5,0,1.25-.53,2.25-1.58s2-2.2,3.09-3.45,2-2.4,2.95-3.45,1.56-1.57,2-1.57a11.85,11.85,0,0,1,2.57,1.65c1.51,1.1,3.18,2.32,5,3.67s3.5,2.65,5.06,3.9l3.08,2.48a1.3,1.3,0,0,1,.6,1A1.1,1.1,0,0,1,138.83,74.42Z"/><path class="cls-1" d="M92.55,26.35c-.7,0-1.18-.58-1.43-1.73a18.45,18.45,0,0,1-.37-3.9c0-1.45,0-2.87.15-4.27s.15-2.35.15-2.85a2.08,2.08,0,0,1,1-1.65,24.71,24.71,0,0,1,2.1-1.35,4,4,0,0,0,1.42-1.2c.25-.4-.12-.75-1.12-1.05a26.72,26.72,0,0,0-4.12-.68c-2.16-.25-4.48-.47-7-.67s-4.9-.38-7.2-.53-3.85-.22-4.65-.22a1.33,1.33,0,0,0-1.5,1.5v17.1a1.33,1.33,0,0,1-1.5,1.5q-3.9,0-7.65.07t-7.65.08A40.71,40.71,0,0,1,45,25.82,26.29,26.29,0,0,1,39.3,24a55.08,55.08,0,0,1-5.25-2.85q-2.7-1.65-6.75-3.6a2.42,2.42,0,0,0-1.05-.3.93.93,0,0,0-1,.52,2.69,2.69,0,0,0-.23,1.13v30.3a3.8,3.8,0,0,1-.38,1.57,2.07,2.07,0,0,1-1.12,1.13c-.2.1-.48,0-.83-.38l-.82-.82a27,27,0,0,1-3.68-5,55.56,55.56,0,0,0-3.44-5.32A19.52,19.52,0,0,0,10.5,36a10,10,0,0,0-6-1.72l-.3.6A67.24,67.24,0,0,1,6.67,48.32Q7.19,55,8,61.9A1.44,1.44,0,0,0,8.4,63a5.77,5.77,0,0,0,2.77,1.35,17.25,17.25,0,0,0,3.23.3,8.78,8.78,0,0,0,3.52-.53,4.93,4.93,0,0,0,1.8-1.35,10,10,0,0,0,1.2-1.87,7.13,7.13,0,0,1,1.73-2.1,1.22,1.22,0,0,1,.9-.3,2.23,2.23,0,0,1,1.5,2.25V73q0,.75-3.38,2.7c-2.25,1.3-4.79,2.64-7.64,4s-5.63,2.72-8.33,4A57.49,57.49,0,0,0,.45,86.31l-.45.6A10.36,10.36,0,0,0,1.2,90.5C2,92.2,2.87,94,3.83,96s1.89,3.85,2.84,5.69,1.63,3.27,2,4.27l.9.45.6-.45q.45-1,2.25-4.57t4-7.26q2.17-3.74,4.13-6.66c1.3-2,2.2-2.92,2.7-2.92s.65.3.75.9a9.2,9.2,0,0,1,.15,1.2A81.54,81.54,0,0,1,21.22,108,133.38,133.38,0,0,1,14,128.38a30.07,30.07,0,0,1-2,3.37c-.85,1.25-1.67,2.54-2.47,3.89s-1.53,2.65-2.17,3.89a7.33,7.33,0,0,0-1,3.37q0,1,.9.75a2.3,2.3,0,0,0,.9-.3,40.35,40.35,0,0,0,14-9.73,64.41,64.41,0,0,0,9.9-14A82.78,82.78,0,0,0,38.4,103.3,137.27,137.27,0,0,0,42,86.61q.9-6.3,1.35-13.18c.1-1.1.17-2.17.23-3.22A22.87,22.87,0,0,1,44,67c.2-.6.35-1.1.45-1.49a3.16,3.16,0,0,1,.9-1.35,5.91,5.91,0,0,1,1.42,1.12,2.32,2.32,0,0,1,.83,1.57v78.31a1.33,1.33,0,0,0,1.5,1.5,35.71,35.71,0,0,0,3.75-.23,23.85,23.85,0,0,0,4.12-.82A20.28,20.28,0,0,0,60.75,144a10.91,10.91,0,0,0,3-2.32c.2-.21.37-1.68.53-4.43s.3-5.8.44-9.15.25-6.55.31-9.6.07-5,.07-5.77q0-9.9-.22-19.65t-.23-19.65A1.38,1.38,0,0,1,66.08,72,14.15,14.15,0,0,1,69.3,72c1.2.15,2.37.28,3.53.38a3,3,0,0,0,2.47-.6,9.24,9.24,0,0,0-3.6-1.35q-2.7-.6-6.23-1.2t-7.27-1.5a40.82,40.82,0,0,1-7-2.33A15.85,15.85,0,0,1,46,61.82a7.71,7.71,0,0,1-2-5.47V29.8a1.33,1.33,0,0,1,1.5-1.5H96.66V26.35Z"/><path class="cls-1" d="M49.8,47.81a.75.75,0,1,0,0,1.49H78.3a1.35,1.35,0,0,1,1.28.67,5.15,5.15,0,0,1,.52,1.58,7.72,7.72,0,0,1,.07,1.87c0,.65-.07,1.18-.07,1.58v6.3q0,11-1,22.12A79.11,79.11,0,0,1,74,105a23.14,23.14,0,0,1-1.2,2.62c-.5,1-1,1.93-1.58,2.93s-1,2-1.42,2.85a9.27,9.27,0,0,0-.75,2.4l.45.45a43.3,43.3,0,0,0,11.7-7.88,50.75,50.75,0,0,0,8.47-10.57,54.4,54.4,0,0,0,5.55-12.6c.58-1.94,1.07-3.89,1.49-5.86V47.8Z"/></g></g></g></g></svg>