<svg xmlns="http://www.w3.org/2000/svg" viewBox="0 0 128.25 133.2"><defs><style>.cls-1{fill:none;stroke:#770010;stroke-miterlimit:10;stroke-width:3px;}</style></defs><title>3</title><g id="レイヤー_2" data-name="レイヤー 2"><g id="chapter-1"><g id="臆病な魔女"><g id="な"><path class="cls-1" d="M55.65,24.6Q56.85,24,58.8,23t4.12-2.1a40.87,40.87,0,0,1,4.13-1.73,10.16,10.16,0,0,1,3.15-.67q6.75,0,6.75,6.9a8.79,8.79,0,0,1-1.57,5.48,11.81,11.81,0,0,1-4.13,3.29A21.45,21.45,0,0,1,65.55,36c-2.1.4-4.2.83-6.3,1.27a59,59,0,0,0-5.92,1.58,11.2,11.2,0,0,0-4.58,2.7A15.33,15.33,0,0,0,46,45.38,30.85,30.85,0,0,0,44.1,49.8q-1.2,3.3-2.85,8.92c-1.1,3.75-2.38,7.86-3.83,12.3s-3.07,9-4.87,13.58A96.39,96.39,0,0,1,26.7,97.05a39.49,39.49,0,0,1-6.82,9.07A11.24,11.24,0,0,1,12,109.65c-2.9,0-4.85-1.07-5.85-3.23a15.94,15.94,0,0,1-1.5-6.82,21.11,21.11,0,0,1,1.95-9,47.15,47.15,0,0,1,4.73-8c1.84-2.56,3.82-5,5.92-7.5a50.24,50.24,0,0,0,5.4-7.58l2.25-4c1.1-1.94,2.22-4,3.38-6.22s2.17-4.25,3.07-6.15a12.7,12.7,0,0,0,1.35-3.6c0-.7,0-1.67.08-2.93s-.48-1.87-1.58-1.87c-3.4,0-6.88-.1-10.42-.3a29.83,29.83,0,0,1-9.61-2,15.74,15.74,0,0,1-7-5.4Q1.5,31.36,1.5,24.6q0-1.35,1.5-1.35a10.41,10.41,0,0,1,3.3.67c1.3.46,2.62,1,4,1.58s2.67,1.2,4,1.8a26.77,26.77,0,0,0,3.45,1.35,16.47,16.47,0,0,0,6.38,1.12c2.14,0,4.37-.07,6.67-.07a25.51,25.51,0,0,0,5-.37,4.15,4.15,0,0,0,2.55-1.5,6.51,6.51,0,0,0,1.05-3.08c.15-1.3.27-2.95.37-4.95a9.42,9.42,0,0,0-1.27-5.55,19.5,19.5,0,0,0-3.23-3.9C34.05,9.25,33,8.28,32,7.42a3.74,3.74,0,0,1-1.5-2.92,2,2,0,0,1,1.28-1.73,8.62,8.62,0,0,1,2.92-.89c1.1-.16,2.2-.25,3.3-.3s1.9-.08,2.4-.08c1.1,0,2.5,0,4.2.08A48.93,48.93,0,0,1,49.73,2a17.22,17.22,0,0,1,4.72,1.36,6,6,0,0,1,3,2.77,6.31,6.31,0,0,1,.38,3.75,36.86,36.86,0,0,1-1,4.27c-.45,1.46-.93,2.91-1.43,4.35a12.37,12.37,0,0,0-.75,4c0,.4,0,.88.07,1.42S55.05,24.7,55.65,24.6ZM77.1,87.15l.15-.15.45-1c0-2,0-4.28.08-6.83S78,74,78.15,71.4a51.7,51.7,0,0,1,1.13-7.57,18.88,18.88,0,0,1,2.47-6.23,20.43,20.43,0,0,1,4-4.2q3.21-2.85,6.75-5.78c2.34-1.95,4.47-3.72,6.37-5.32s2.85-2.5,2.85-2.7a3.92,3.92,0,0,0-1.58-3.3,13.34,13.34,0,0,0-3.67-1.95Q94.35,33.6,92.1,33a12.18,12.18,0,0,1-3.6-1.5l-.3-.6a2.23,2.23,0,0,1,1.28-1.35,8.52,8.52,0,0,1,2.25-.67,19.79,19.79,0,0,1,2.47-.3c.8,0,1.45-.08,2-.08a90.71,90.71,0,0,1,11.25.67,25.9,25.9,0,0,1,9.45,2.93,17,17,0,0,1,6.53,6.52q2.48,4.27,2.47,11.33c0,2.4-.4,4-1.2,4.72s-2.4,1.13-4.8,1.13a20,20,0,0,1-5.25-.68c-1.7-.45-3.37-.94-5-1.5s-3.33-1-5-1.5a20.43,20.43,0,0,0-5.25-.67c-3.7,0-6.58.78-8.63,2.32S87.6,58.05,87.6,62c0,1.7.05,3.88.15,6.52s.32,5.33.67,8a55,55,0,0,0,1.5,7.58,13.08,13.08,0,0,0,2.78,5.47A19.12,19.12,0,0,0,99,94.2a65.64,65.64,0,0,0,7.35,2.85c2.5.8,5,1.57,7.43,2.33a20.63,20.63,0,0,1,6.52,3.29,16.56,16.56,0,0,1,4.65,5.71,20.7,20.7,0,0,1,1.8,9.37v1.72a3.53,3.53,0,0,1-.3,1.58,8.3,8.3,0,0,1-6.3,3.6,9.07,9.07,0,0,1-6.45-2.55,69.82,69.82,0,0,1-5.25-5.55A69.82,69.82,0,0,0,103.2,111a9.07,9.07,0,0,0-6.45-2.55,4.6,4.6,0,0,0-1.27.15,1.34,1.34,0,0,0-.83.9,10,10,0,0,0-.37,2.25c-.06.8-.13,1.55-.23,2.25a18.39,18.39,0,0,1-7.65,12.75,24.23,24.23,0,0,1-9.07,3.9,48.09,48.09,0,0,1-9.83,1,46.9,46.9,0,0,1-9.52-1,27.63,27.63,0,0,1-8.63-3.3,18.77,18.77,0,0,1-6.3-6.07,16.92,16.92,0,0,1-2.4-9.3A18.85,18.85,0,0,1,44.1,100.5a25.75,25.75,0,0,1,8.63-7.42,39.81,39.81,0,0,1,11.39-4,87.4,87.4,0,0,1,11.93-1.5Zm.6,16c0-.7,0-1.37.08-2a3.61,3.61,0,0,0-.53-2,2.3,2.3,0,0,0-1.27-1,13.47,13.47,0,0,0-2.1-.59,17.53,17.53,0,0,0-2.26-.31c-.74,0-1.32-.07-1.72-.07q-3,0-7.05.22A34.55,34.55,0,0,0,55.2,98.7a14.91,14.91,0,0,0-6.15,3.45,8.63,8.63,0,0,0-2.55,6.6,6.68,6.68,0,0,0,1.42,4.42,9.86,9.86,0,0,0,3.53,2.71,16.44,16.44,0,0,0,4.65,1.34,30.88,30.88,0,0,0,4.65.38,28.09,28.09,0,0,0,6.67-.75,15,15,0,0,0,5.41-2.47,11.5,11.5,0,0,0,3.59-4.5A15.92,15.92,0,0,0,77.7,103.2Z"/></g></g></g></g></svg>