<svg xmlns="http://www.w3.org/2000/svg" viewBox="0 0 147.95 150.25"><defs><style>.cls-1{fill:#770010;}</style></defs><title>4</title><g id="レイヤー_2" data-name="レイヤー 2"><g id="chapter-1"><g id="臆病な魔女"><g id="魔"><path class="cls-1" d="M59.82,78.08c0,1-.07,2.13-.07,3.23a7.29,7.29,0,0,0,.35,2.2V74.66l-.2.19C59.9,76,59.87,77,59.82,78.08Z"/><path class="cls-1" d="M59.75,91.51c0,1.19,0,2.42.07,3.67s.08,2.47.08,3.67c.06.07.13.13.2.2V89.3A7.3,7.3,0,0,0,59.75,91.51Z"/><path class="cls-1" d="M43.47,140.85a31.19,31.19,0,0,1-12.82,2.85,6.87,6.87,0,0,1-1-.14c-.51-.11-.75-.3-.75-.61a1.34,1.34,0,0,1,.9-1.19q.9-.47,1.35-.75a69.87,69.87,0,0,0,8.55-5.63,71,71,0,0,0,7.87-7,56.6,56.6,0,0,0,6.53-8.18,48,48,0,0,0,4.65-9,.89.89,0,0,0,.15-.59c0-1.4-.73-2-2.18-1.8a29.66,29.66,0,0,0-4.8,1.12q-2.62.83-4.8,1.27c-1.45.3-2.17-.19-2.17-1.5V67.2a1.33,1.33,0,0,1,1.5-1.5,18.94,18.94,0,0,1,5.55.83c1.8.55,3.6,1.12,5.4,1.73l2.75.88V64.58a20.93,20.93,0,0,1-2.9.37,2.53,2.53,0,0,1-1.88-.67,3.81,3.81,0,0,1-1-1.58A7.42,7.42,0,0,1,54,60.76c0-.7-.07-1.36-.07-1.95a3.17,3.17,0,0,0-.23-1.36c-.15-.3-.58-.44-1.27-.44a6.06,6.06,0,0,0-2.55.89c-1.11.61-2.23,1.28-3.38,2S44.17,61.41,43,62.1a21.58,21.58,0,0,1-2.77,1.5l-.45-.29a15.33,15.33,0,0,1,1.65-4.13q1.63-3.37,3.75-7.35c1.39-2.65,2.67-5.1,3.82-7.35s1.73-3.67,1.73-4.28a1,1,0,0,0-.53-1c-.35-.15-.67-.27-1-.38H39.5l-1-.45-.3-.45.3-.75A14.49,14.49,0,0,1,41,37c1.39,0,3-.08,4.72-.08H53.9c.39,0,.69-.52.9-1.57a12.17,12.17,0,0,0,.07-3.6,16.33,16.33,0,0,0-1-4,5.92,5.92,0,0,0-2.1-2.86,8.3,8.3,0,0,0-2.63-.52q-2.18-.22-4.8-.3l-5-.15c-1.6-.05-2.7-.08-3.3-.08a.94.94,0,0,0-1,.6,5.62,5.62,0,0,0-.3,1.43,9.09,9.09,0,0,0,0,1.65c0,.55.08,1,.08,1.28a15.38,15.38,0,0,0,.52,4,15.63,15.63,0,0,1,.53,4v9.16q0,10.34-.38,21.75a201.52,201.52,0,0,1-2,22.57,118.2,118.2,0,0,1-5.33,21.68,72.19,72.19,0,0,1-10.12,19.2c-.3.4-.93,1.12-1.88,2.17s-2,2.12-3.07,3.22-2.16,2.08-3.15,2.93a4.55,4.55,0,0,1-2.1,1.27c-.51,0-.78-.22-.83-.67A10.4,10.4,0,0,1,7,139.06a44.33,44.33,0,0,1,1.5-11.48q1.48-5.62,3.22-11.1t3.23-11.1A44.76,44.76,0,0,0,16.4,93.9V16.06c0-1.1.45-1.66,1.35-1.66a12.58,12.58,0,0,1,4.42,1l5.48,2.25c1.89.81,3.82,1.56,5.77,2.25A16,16,0,0,0,38.9,21q6.75,0,13.5.44c2.56.18,5.13.28,7.7.36V0H0V150.25H60.1V129.62c-1.47,1.34-3,2.64-4.55,3.89A57.21,57.21,0,0,1,43.47,140.85Z"/><path class="cls-1" d="M58.7,25.35c-.1.55.38,1,1.4,1.27v-2l-.8.16Z"/><path class="cls-1" d="M109.25,85.81H99.5l-1,.45-.3.44a6,6,0,0,0,2,.23c1.25,0,2.63.08,4.13.08s2.9,0,4.2-.08a6.54,6.54,0,0,0,2.1-.23l-.3-.44Z"/><path class="cls-1" d="M147.05,131.26a7.32,7.32,0,0,0-1.88-2,15.51,15.51,0,0,0-1.87-1.13,1.33,1.33,0,0,1-.9-1.2,16.27,16.27,0,0,1,.15-1.8,20.67,20.67,0,0,0,.15-2.32,5.16,5.16,0,0,0-.38-2,1.4,1.4,0,0,0-1.42-.91,2.78,2.78,0,0,0-2.33,1.58c-.65,1-1.33,2.2-2,3.45a21.84,21.84,0,0,1-2.4,3.45,4.2,4.2,0,0,1-3.3,1.57h-18a.82.82,0,0,1-.83-.59,3,3,0,0,1-.22-1.05,3.55,3.55,0,0,1,1.35-2.7,11.76,11.76,0,0,1,3.3-2,21,21,0,0,1,7.2-1.58,3.3,3.3,0,0,1,2.1.61,9,9,0,0,1,1.35,1.34,7.56,7.56,0,0,0,1.35,1.36,3,3,0,0,0,2,.59,7.53,7.53,0,0,0,3.75-1.12,3.55,3.55,0,0,0,1.95-3.22,5.84,5.84,0,0,0-1-3.23,13.07,13.07,0,0,0-2.63-2.85,15.8,15.8,0,0,0-3.37-2.1,8,8,0,0,0-3.3-.82c-.9,0-1.38.25-1.43.75s-.13,1-.22,1.57a3,3,0,0,1-.9,1.57c-.51.51-1.61.75-3.3.75a6.55,6.55,0,0,1-1.43-.14,3.25,3.25,0,0,1-1.27-.61,5.48,5.48,0,0,1,1.65-3.52,42.77,42.77,0,0,1,3.75-3.75q2.1-1.87,4.27-3.68a16,16,0,0,0,3.08-3.14,1.44,1.44,0,0,0,.45-1V77.4c0-.69.42-1.2,1.27-1.5s1.28-.79,1.28-1.5-.63-1.5-1.88-2.39a46.38,46.38,0,0,0-4.2-2.7,42.49,42.49,0,0,1-4.2-2.78c-1.25-1-1.87-1.82-1.87-2.63V47.4l.45-1a1.65,1.65,0,0,1,1.2-.45l.6.45c.39.81,1.2,2.25,2.4,4.35s2.49,4.28,3.9,6.53,2.77,4.25,4.12,6,2.33,2.62,2.93,2.62c.3,0,.8-.57,1.5-1.72s1.47-2.45,2.32-3.9,1.65-2.85,2.4-4.2a29.88,29.88,0,0,1,1.58-2.63,4.56,4.56,0,0,0,.45-.52,1.32,1.32,0,0,0,.15-.68.94.94,0,0,0-.38-.75,5.59,5.59,0,0,1-.67-.6,25.83,25.83,0,0,0-5.33-2.62q-2.78-1-5.47-1.88a38.66,38.66,0,0,1-5.4-2.25,19.29,19.29,0,0,1-5.1-3.75c-.11-.09-.15-.17-.15-.22s-.06-.12-.15-.23l.3-.59,1-.46c.69,0,2.22.08,4.57.23s4.77.23,7.28.23a52.94,52.94,0,0,0,6.67-.38c1.95-.25,2.93-.77,2.93-1.58a7.6,7.6,0,0,0-1.2-1.34c-.81-.8-1.73-1.7-2.78-2.7s-2.05-1.9-3-2.71a16.71,16.71,0,0,0-1.72-1.34,5,5,0,0,0-.53-.23,3.47,3.47,0,0,1-.52-.22,4.83,4.83,0,0,0-2.93,1.57,30.92,30.92,0,0,0-2.17,2.77,13.45,13.45,0,0,1-2.4,2.63,5.22,5.22,0,0,1-3.45,1.12,6.08,6.08,0,0,1-2.78-.45c-.55-.3-.82-1.14-.82-2.55a6.55,6.55,0,0,1,.3-2,7.17,7.17,0,0,0,.3-2c0-.69-.6-1.2-1.8-1.5s-2.5-.54-3.9-.75a35.59,35.59,0,0,1-3.9-.75c-1.2-.29-1.8-.9-1.8-1.79a.61.61,0,0,1,.45-.61,2.68,2.68,0,0,1,.75-.14h31.5a3.69,3.69,0,0,0,1.5-.61c.69-.39,1-.79,1-1.19s-.71-1.18-2.1-2.63-3-3-4.65-4.57S135,12.26,133.4,11a14.83,14.83,0,0,0-3-2.1l-.9.46a25.46,25.46,0,0,1-1.65,3.29,35.56,35.56,0,0,1-2.78,4.13,32.79,32.79,0,0,1-3.22,3.6,4.65,4.65,0,0,1-3,1.57h-30c-.6,0-1-.37-1-1.12a14,14,0,0,1-.15-1.72c0-1.6.07-3.23.22-4.88A10.09,10.09,0,0,1,89.45,9.6c.19-.29.37-.54.52-.75A1.45,1.45,0,0,0,90.2,8c0-.6-.86-1.09-2.55-1.5a44.68,44.68,0,0,0-5.78-.89c-2.15-.2-4.23-.33-6.22-.38S72.29,5.1,71.6,5.1c-1.2,0-1.8.51-1.8,1.5V20.26a1.4,1.4,0,0,1-1.5,1.57c-1,.05-1.8.07-2.4.07-1.94,0-3.87,0-5.8-.09V24.6a40.82,40.82,0,0,1,6.1-.75c2.3-.09,4.59-.15,6.9-.15,1,0,3,0,6,.08l9.45.15q5,.08,9,.38c2.7.2,4.24.45,4.65.75a4.2,4.2,0,0,1,1.12,1.5,11.58,11.58,0,0,1,.83,2.25c.19.8.37,1.6.52,2.39a11.36,11.36,0,0,1,.23,1.95,4.73,4.73,0,0,1-.68,2.93,2.6,2.6,0,0,1-1.65,1,9,9,0,0,1-2.32,0,24.45,24.45,0,0,0-2.7-.16,33.47,33.47,0,0,1-9.68-1.2c-2.65-.79-5.17-2.85-7.57-6.14a2.69,2.69,0,0,1-.45-.53.51.51,0,0,0-.45-.22,1.73,1.73,0,0,0-1.5,1.12c-.4.75-.83,1.58-1.28,2.47a16.65,16.65,0,0,1-1.5,2.48A2.57,2.57,0,0,1,73,36a1.82,1.82,0,0,1-1.8-.91A4.57,4.57,0,0,1,70.7,33a5.19,5.19,0,0,1,.37-2.33c.25-.45.62-1.07,1.13-1.87a8.86,8.86,0,0,0-2.93-.75l-4.57-.61a34.82,34.82,0,0,1-4.28-.75l-.32-.08v38h0c1.45-.25,2.93-.55,4.43-.9a24.75,24.75,0,0,0,4-1.28q1.8-.74,1.8-1.5c0-2-.08-4-.23-6.07a22,22,0,0,1,.38-6.07,2.27,2.27,0,0,1,.22-.83c.15-.35.32-.53.53-.53a2.56,2.56,0,0,1,2.4,1.36,16.11,16.11,0,0,1,1.27,3,10.68,10.68,0,0,0,1.5,3,3.55,3.55,0,0,0,3.08,1.34,10.63,10.63,0,0,0,4.12-.9,3.28,3.28,0,0,0,2.18-3.3,5.62,5.62,0,0,0-2-4.72,14,14,0,0,0-4.5-2.33,39.44,39.44,0,0,0-4.72-1.12,4.7,4.7,0,0,1-2.85-1.13,5.71,5.71,0,0,1-.68-1.79c-.15-.7.27-1,1.28-.91a19.2,19.2,0,0,1,5.25-.82c2.49-.15,5.17-.25,8-.3s5.6-.05,8.25,0,4.63.07,5.93.07c.6,0,.9.28.9.83a6.37,6.37,0,0,1-.15,1.42,8.84,8.84,0,0,1-1.28,2.48c-.55.75-1.07,1.53-1.57,2.32-1,1.61-2.1,3.33-3.3,5.18a37,37,0,0,1-4.05,5.18,23.74,23.74,0,0,1-4.95,4.05A11,11,0,0,1,79.55,62,6,6,0,0,1,78,61.73a6,6,0,0,0-1.57-.22c-.6,0-1,.4-1.28,1.19a18.14,18.14,0,0,0-.6,2.78q-.22,1.58-.45,3a2.86,2.86,0,0,1-.82,1.87,3.4,3.4,0,0,1-2.33.53c-1,0-1.87-.07-2.47-.07a19.35,19.35,0,0,1-5.7-.83c-.89-.27-1.77-.56-2.65-.84v5.52c.16-.15.34-.31.55-.48a1.4,1.4,0,0,1,.9-.37H77.3a1.33,1.33,0,0,1,1.5,1.5V98.4a1.33,1.33,0,0,1-1.5,1.5H61.55a1.4,1.4,0,0,1-.9-.37c-.21-.17-.39-.33-.55-.48v30.57c2.08-1.89,4.07-3.86,5.95-5.94A107.62,107.62,0,0,0,74.3,113.4c.3-.39.79-1.17,1.5-2.32l2.17-3.6a31.43,31.43,0,0,1,2.25-3.3c.75-1,1.32-1.42,1.73-1.42a11.87,11.87,0,0,1,1.42.14c.65.11,1,.41,1,.91v31a5.79,5.79,0,0,0,1.57,4.28,11.09,11.09,0,0,0,3.83,2.47,16.76,16.76,0,0,0,4.8,1.13c1.7.15,3.24.22,4.65.22h14.1c1.09,0,2.72.05,4.87.15s4.52.13,7.13.08,5.22-.18,7.87-.37a39.62,39.62,0,0,0,7.28-1.21,15.9,15.9,0,0,0,5.4-2.47A4.92,4.92,0,0,0,148,135,6.66,6.66,0,0,0,147.05,131.26ZM90.2,70.88c-1.91,0-3.48-.1-4.73-.15a6.49,6.49,0,0,1-2-.22,1,1,0,0,1-.3-.75c0-.61.47-1.18,1.42-1.73s2-1.1,3.23-1.65,2.27-1.1,3.22-1.65,1.43-1.07,1.43-1.58a2,2,0,0,0-.68-1.42,4.24,4.24,0,0,1-1-1.42,1.75,1.75,0,0,0,.15-.38,1.31,1.31,0,0,1,.15-.37c.09-.1.65-.5,1.65-1.21s2.12-1.42,3.37-2.17,2.45-1.45,3.6-2.1,1.88-1.07,2.18-1.27a9.13,9.13,0,0,1,1.42.14,3.85,3.85,0,0,1,1.28.45,6.46,6.46,0,0,1,.22,1.66c.05.89.08,1.85.08,2.84v5c0,.6.49.93,1.5,1a20.11,20.11,0,0,0,3.37-.15c1.25-.15,2.48-.32,3.68-.53a20.45,20.45,0,0,1,2.4-.3l.9.75.15.6a6.51,6.51,0,0,1-.83,1.88,16,16,0,0,1-1.57,2.18,12.64,12.64,0,0,1-1.88,1.8,3,3,0,0,1-1.72.75h-8.4c-2,0-4.08,0-6.23.07S92.09,70.93,90.2,70.88Zm6.15,29a1.32,1.32,0,0,1-1.5-1.5V75.31a1.32,1.32,0,0,1,1.5-1.5H112.4a1.33,1.33,0,0,1,1.5,1.5V98.4a1.33,1.33,0,0,1-1.5,1.5Zm14.1,16c-.41,1.2-1,1.81-1.65,1.81a8.44,8.44,0,0,1-2.1-.38c-.9-.25-1.35,0-1.35.82a6.76,6.76,0,0,0,1.12,3.15,32.11,32.11,0,0,1,1.88,3.83,5.83,5.83,0,0,1,.45,3.3c-.21,1-1.2,1.42-3,1.42a10.63,10.63,0,0,1-2.55-.37,3.39,3.39,0,0,1-2.1-1.27,4.25,4.25,0,0,1-.23-2c0-1,.08-1.67.08-2.17a82.48,82.48,0,0,0-.6-9.83,80.44,80.44,0,0,1-.6-9.83l.45-1.05a6.92,6.92,0,0,1,2-.45c1-.09,2-.14,3.08-.14s2.15,0,3.15.07,1.8.07,2.4.07a.84.84,0,0,1,.82.61,3.08,3.08,0,0,1,.23,1c0,.5,0,1.47-.08,2.92a34,34,0,0,1-.45,4.42A27.72,27.72,0,0,1,110.45,116Z"/><path class="cls-1" d="M60.65,86.4a7.28,7.28,0,0,0-.45-2.55c-.05-.11-.06-.23-.1-.34V89.3c0-.11,0-.23.1-.35A7.12,7.12,0,0,0,60.65,86.4Z"/><path class="cls-1" d="M69.35,87c1.5,0,2.87,0,4.12-.08a6.19,6.19,0,0,0,2-.23A.73.73,0,0,0,75,86a2.28,2.28,0,0,0-.82-.22h-9.6a2.22,2.22,0,0,0-.83.22.72.72,0,0,0-.52.67,6,6,0,0,0,2,.23C66.47,87,67.85,87,69.35,87Z"/></g></g></g></g></svg>