<svg xmlns="http://www.w3.org/2000/svg" viewBox="0 0 147.42 163.65"><defs><style>.cls-1{fill:#770010;}</style></defs><title>5</title><g id="レイヤー_2" data-name="レイヤー 2"><g id="chapter-1"><g id="臆病な魔女"><g id="女"><path class="cls-1" d="M89.83,0V46.35H107.1q1.65,0,3.45-2.4a60.1,60.1,0,0,0,3.53-5.33c1.14-1.94,2.22-3.72,3.22-5.32s1.8-2.4,2.4-2.4a17.45,17.45,0,0,1,3.15,2.25q2.85,2.25,6.3,5c2.3,1.85,4.4,3.59,6.3,5.25a30.55,30.55,0,0,1,3.15,2.92q.3.9-.15,1.2a5.48,5.48,0,0,1-1.87.22c-1.16.06-2.61.11-4.36.16s-3.62,0-5.62,0-3.93-.08-5.77-.08H113.1c-.6,0-1.18.43-1.72,1.27a13.92,13.92,0,0,0-1.43,3,30.91,30.91,0,0,0-1,3.45c-.25,1.16-.42,2-.52,2.48-.4,2.2-.73,4.38-1,6.52A31.57,31.57,0,0,1,106.05,71a52.15,52.15,0,0,1-3.22,7.57q-2.19,4.28-4.36,8.71t-3.82,8.54A19.8,19.8,0,0,0,93,102.9c0,.5.08.8.22.9s.43.25.83.45l11,4.87a69.11,69.11,0,0,1,11,6.15,34.94,34.94,0,0,1,8.55,8.33,19.26,19.26,0,0,1,3.45,11.55,10.48,10.48,0,0,1-2.33,7,8.21,8.21,0,0,1-6.67,2.78,17,17,0,0,1-3.75-.38,9,9,0,0,1-3.3-1.57,24.42,24.42,0,0,1-5.55-5.1q-2.4-3-5-5.7c-.5-.5-1.7-1.58-3.6-3.22s-3.9-3.38-6-5.18c-.72-.62-1.43-1.21-2.12-1.78v41.68h57.59V0Z"/><path class="cls-1" d="M24,76.73q-2.7,5.47-4.95,10.34t-3.67,8.7A18.18,18.18,0,0,0,14,101.4c0,.7.67,1.23,2,1.58a29.59,29.59,0,0,0,4.58.75c1.7.14,3.35.22,4.95.22h3.15c.8,0,1.6,0,2.4.07a6.39,6.39,0,0,0,2.25-.22c1.2-.3,2.72-2,4.58-5.18s3.84-7.07,6-11.77S48.22,77,50.47,71.48s4.36-10.9,6.3-16.05,3.65-9.75,5.11-13.81S64.35,34.7,65,33c.2-.6.62-1.85,1.27-3.75s1.36-3.9,2.11-6,1.44-4,2.09-5.7A13.78,13.78,0,0,1,71.7,14.7a10.65,10.65,0,0,1,2.47-1.65,7.15,7.15,0,0,0,2.33-1.8q-.9-1.35-4-2.4a49.65,49.65,0,0,0-6.9-1.73c-2.5-.44-4.9-.77-7.2-1s-4.05-.3-5.25-.3c-.6,0-1.33.93-2.18,2.77A64.44,64.44,0,0,0,48.45,15q-1.2,3.6-2.25,7c-.7,2.25-1.15,3.72-1.35,4.42q-1.8,6-3.68,11.92T37.05,50c-.7,1.7-1.72,4-3.08,6.82s-2.9,6-4.64,9.38S25.8,73.08,24,76.73Z"/><path class="cls-1" d="M32.1,47.55q.75-.3,1-.45a20.31,20.31,0,0,0-2.93-.23l-5.55-.14q-3.23-.07-7,0t-7.2.07c-2.3,0-4.35,0-6.15.07S1.25,47,.45,47L0,47.4l.45.45h30.6A3.44,3.44,0,0,0,32.1,47.55Z"/><path class="cls-1" d="M63.75,46.35a.75.75,0,0,0,0,1.5h23.4a1.45,1.45,0,0,1,1.35,1A4.27,4.27,0,0,1,89,50.55a9,9,0,0,1-.3,1.5c-.2.8-.43,1.68-.68,2.63s-.47,1.87-.67,2.77S87,59,86.85,59.4c-.2,1-.58,2.62-1.13,4.87s-1.22,4.76-2,7.5S82,77.4,81.08,80.4s-2,5.73-3,8.17a32.68,32.68,0,0,1-3.23,6c-1.1,1.56-2.15,2.33-3.15,2.33a43.12,43.12,0,0,1-5.85-.38,44.14,44.14,0,0,1-5.7-1.12,52.7,52.7,0,0,0-7.65-1.2q-3.75-.3-7.65-.3l-.45.3c.1.4.75.93,2,1.57a47.25,47.25,0,0,0,4.27,2L56,100.05c1.9.8,3.67,1.63,5.32,2.47a41.58,41.58,0,0,1,4.13,2.41,3.62,3.62,0,0,1,1.8,2.17,1.36,1.36,0,0,1-.08.38,1.6,1.6,0,0,0-.07.52,95.68,95.68,0,0,1-10.95,10,83,83,0,0,1-10.27,6.75q-5.17,2.85-10.88,5.4t-13.05,6l-6.38,3a23.11,23.11,0,0,0-5.77,3.6c-.9.8-1.28,1.27-1.13,1.43a4.78,4.78,0,0,0,2,.22,24,24,0,0,0,4.57-.45c1.55-.3,3.08-.55,4.58-.75a149,149,0,0,0,23.78-5.85A120.69,120.69,0,0,0,66,127.2c1.7-1,3.42-2,5.17-3.08a29,29,0,0,0,4.88-3.67c.8-.7,1.52-1.35,2.17-2a10.69,10.69,0,0,1,2.48-1.65h2c.4,0,1.52.7,3.37,2.1q1.83,1.38,3.81,3V46.35Z"/></g></g></g></g></svg>