<svg xmlns="http://www.w3.org/2000/svg" viewBox="0 0 188.03 185.51"><defs><style>.cls-1{fill:#444;}</style></defs><title>1</title><g id="レイヤー_2" data-name="レイヤー 2"><g id="レイヤー_1-2" data-name="レイヤー 1"><path class="cls-1" d="M18,124.6l.4.6a13.84,13.84,0,0,1-3,.4q-2.61.2-5.8.3l-5.9.2a11.15,11.15,0,0,1-3.1-.1,9.92,9.92,0,0,1-.6-1.4q-.21-.6,1.2-.6h15.4Zm37.6-.6h19.8a1.77,1.77,0,0,0,2-2V23.4a1.77,1.77,0,0,0-2-2H7.83a.88.88,0,0,1-1-1,.88.88,0,0,1,1-1h129.6q1.4,0,3.7-2.5a63.58,63.58,0,0,0,4.6-5.7Q148,8,150,4.9a47.43,47.43,0,0,1,3-4.3l1.2-.6,1.2.4a51.73,51.73,0,0,0,5,4.1q3.6,2.7,7.5,5.7t7,5.8q3.09,2.81,3.5,4l-.4.8-1.4.6H106a1.77,1.77,0,0,0-2,2V122c0,1.47,1.16,2.23,3.5,2.3a67.68,67.68,0,0,0,8-.3c3-.27,5.9-.43,8.7-.5s4.73.5,5.8,1.7a31.49,31.49,0,0,1-5.5.2H54.43l-.6-.4.4-.4Zm-32.4,60.6a2.4,2.4,0,0,0-.2-.7,2.11,2.11,0,0,1-.2-.7V41.8q0-2.8,2.8-1.8a49.82,49.82,0,0,1,5.9,2.3q3.3,1.5,6.1,2.5A97.49,97.49,0,0,0,53,49.1a84.51,84.51,0,0,0,16,1.5,3.9,3.9,0,0,1,3.6,1.6c-.27.27-1.44.43-3.5.5s-4.34.1-6.8.1-4.8,0-7-.1-3.64-.1-4.3-.1a1.77,1.77,0,0,0-2,2V68.7q0,10.3.1,23.8t0,28.3q-.1,14.8-.2,27.4t-.4,21.2q-.3,8.59-.9,9.6a8.21,8.21,0,0,1-3.5,3.4,23.52,23.52,0,0,1-5.1,1.9,32.22,32.22,0,0,1-5.7.9c-1.94.13-3.57.2-4.9.2-.94,0-1.84,0-2.7.1A3.4,3.4,0,0,1,23.23,184.6Zm32.4-98h15.6l1.4.6.4.6a12.08,12.08,0,0,1-3.2.3c-2,.07-4.14.1-6.4.1s-4.4,0-6.4-.1a12,12,0,0,1-3.2-.3l.4-.6Zm54.6,0h17l1.4.6.4.6a13.49,13.49,0,0,1-3.4.3q-3.21.11-6.9.1t-6.9-.1a13.33,13.33,0,0,1-3.4-.3l.4-.6ZM188,124.8a1.6,1.6,0,0,1-1.1,1.3,6,6,0,0,1-1.9.3c-.94,0-2.77-.13-5.5-.4s-5.54-.43-8.4-.5a54.34,54.34,0,0,0-7.7.3c-2.27.27-3.4,1-3.4,2.2v33.4a18.61,18.61,0,0,1-2.9,10.3,26.52,26.52,0,0,1-7.7,7.7,37.88,37.88,0,0,1-20.8,6c-.67,0-1.1-.17-1.3-.5s-.44-.77-.7-1.3a83.2,83.2,0,0,1-3.1-9,29.27,29.27,0,0,0-4.5-8.8c-.27-.4-.7-1-1.3-1.8s-1.24-1.63-1.9-2.5-1.27-1.7-1.8-2.5a4,4,0,0,1-.8-1.6c0-1.07,1.06-1.57,3.2-1.5s4.43.17,6.9.3a29.15,29.15,0,0,0,6.9-.4,3.51,3.51,0,0,0,3.2-3.8V54.6c0-1.47-1.17-2.27-3.5-2.4a52.44,52.44,0,0,0-7.8.2q-4.3.41-8.3.7t-5-.9a2.48,2.48,0,0,1,1.2-1.4l1.6-.8c.93,0,2.36,0,4.3.1s4,.1,6.1.1,4.1-.07,5.9-.2a14,14,0,0,0,3.7-.6,11.05,11.05,0,0,0,2.6-2.2c1.46-1.87,2.8-3.7,4-5.5a42.75,42.75,0,0,1,4.2-5.3l1-.4a24.44,24.44,0,0,1,4.6,3q3.79,2.8,8.1,6.1t7.9,6.3a22.33,22.33,0,0,1,4,3.8l-.6,1a26.21,26.21,0,0,0-3.1,1.4,11.26,11.26,0,0,0-2.7,2,1,1,0,0,1-.1.4.85.85,0,0,0-.1.4v54a2.66,2.66,0,0,0,.3,1.2,1.11,1.11,0,0,0,1.1.6,3.9,3.9,0,0,0,3-1.3,15.35,15.35,0,0,0,2.1-2.9c.6-1.07,1.16-2,1.7-2.9s1.06-1.3,1.6-1.3,1.36.7,2.9,2.1,3.2,3,5,4.8,3.5,3.57,5.1,5.3,2.66,2.87,3.2,3.4Z"/></g></g></svg>