<svg xmlns="http://www.w3.org/2000/svg" viewBox="0 0 180.67 188.2"><defs><style>.cls-1{fill:#444;}</style></defs><title>2</title><g id="レイヤー_2" data-name="レイヤー 2"><g id="レイヤー_1-2" data-name="レイヤー 1"><path class="cls-1" d="M0,85a12.88,12.88,0,0,1,4-4.2A41.23,41.23,0,0,0,8.6,77,286.87,286.87,0,0,0,33.8,52.8,184.38,184.38,0,0,0,55,25a59.47,59.47,0,0,0,3.9-7q1.7-3.6,3.5-7.2,1.2-2.4,2.5-4.7a36.76,36.76,0,0,0,2.3-4.9A3.32,3.32,0,0,1,69.4,0a38.78,38.78,0,0,1,6,1.3q5,1.3,10.9,2.9T97.6,7.3Q103,8.8,105,9.4c.53.27.8.53.8.8,0,.53-.4,1-1.2,1.3a14.18,14.18,0,0,1-2.8.8l-3.1.6a21,21,0,0,0-2.1.5q-1.8.6-4.1,3.6t-4.8,6.7q-2.51,3.71-4.8,7.2c-1.53,2.33-2.77,4.1-3.7,5.3a77.59,77.59,0,0,1-8.8,8.6q-5.81,5-13,10.5T42.2,66.2q-8,5.4-15.7,9.7a122.83,122.83,0,0,1-14.5,7Q5.21,85.6.8,85.6A.78.78,0,0,1,0,85Zm39.8,73.2L41,157a5.47,5.47,0,0,0,1-1.4,16.1,16.1,0,0,0,1-3q.8-2.81,2-7t2.5-9.1q1.3-4.91,2.4-9.1c.73-2.8,1.37-5.17,1.9-7.1s.8-3,.8-3.1v-3.1c0-1.27-.67-1.9-2-1.9H6a3.38,3.38,0,0,1-1-.2q-.6-.19-.6-.6a3.33,3.33,0,0,1,.3-1.3,1.1,1.1,0,0,1,1.1-.7h124a6.64,6.64,0,0,0,5.2-2.6,39.84,39.84,0,0,0,4.1-5.9c1.27-2.2,2.53-4.3,3.8-6.3a8.37,8.37,0,0,1,4.5-3.8,18.25,18.25,0,0,1,5,2.8q3.4,2.4,7,5.5t7,6.1c2.27,2,3.93,3.47,5,4.4l.4,1a3.22,3.22,0,0,1-.9,1.5,2.3,2.3,0,0,1-1.7.7h-81a1.61,1.61,0,0,0-1,.2l-.6.6q-4.8,5.4-9,11.1T68.8,136A123,123,0,0,1,59,146.6q-5.2,5-10,10.2l-.4,1.2a1.94,1.94,0,0,0,2.2,2.2,308.73,308.73,0,0,0,35.2-2,308.73,308.73,0,0,1,35.2-2c1.2,0,2.53.07,4,.2a3.44,3.44,0,0,0,3.4-1.6q.19-3.8-3.1-7.5a89.74,89.74,0,0,0-7.1-7.1,91.65,91.65,0,0,1-6.7-6.6c-1.93-2.13-2.57-4.2-1.9-6.2l.6-.4a95.48,95.48,0,0,1,17.7,5,79.29,79.29,0,0,1,17.6,9.3,54.11,54.11,0,0,1,13.5,13.5,30.2,30.2,0,0,1,5.4,17.6,19.25,19.25,0,0,1-3.2,11.1q-3.19,4.69-10.2,4.7-4.8,0-7.4-1.6a11,11,0,0,1-4-4.2,20,20,0,0,1-2-5.8c-.4-2.13-.9-4.27-1.5-6.4a32.24,32.24,0,0,0-2.4-6.1,13.12,13.12,0,0,0-4.5-4.9,1.61,1.61,0,0,0-1-.2,12.67,12.67,0,0,0-3.1.6c-1.4.4-2.9.87-4.5,1.4s-3.13,1.07-4.6,1.6-2.6.93-3.4,1.2q-16.2,5.2-32.5,9t-32.7,7.8c-2.27.53-4.57,1.07-6.9,1.6a62.38,62.38,0,0,0-6.9,2,26,26,0,0,0-4.6,2.5,8.67,8.67,0,0,1-5,1.5q-1.2,0-4-3.7a97.72,97.72,0,0,1-5.7-8.5q-2.89-4.8-5.2-9.3T7,160.8c0-1.33.6-2,1.8-2H38.4ZM133.2,76a2.59,2.59,0,0,1-2.4,1.4H41.6a1,1,0,1,1,0-2H95.2q2.4,0,4.8-2.7a55,55,0,0,0,4.6-6l4-6c1.2-1.8,2.13-2.7,2.8-2.7q.41,0,3.7,2.6t7.2,5.8q3.9,3.19,7.2,6.1A35.05,35.05,0,0,1,133.2,76Zm47.2-17.8q-3.19,4-6.6,7.6a86.57,86.57,0,0,0-6.4,7.6,53.83,53.83,0,0,0-3.6,5.3c-1.07,1.8-2.13,3.63-3.2,5.5a1.92,1.92,0,0,1-1.8,1.2q-3.8,0-9.5-3.8a105.45,105.45,0,0,1-12.2-9.7,173.46,173.46,0,0,1-13-13.2q-6.5-7.31-11.8-14.5a111.31,111.31,0,0,1-8.6-13.4q-3.3-6.19-3.3-10c0-.93.57-1.23,1.7-.9a17.59,17.59,0,0,1,3.9,1.8,37.36,37.36,0,0,1,4.1,2.8c1.27,1,2.1,1.63,2.5,1.9q7,4.8,14.2,9.6a96.84,96.84,0,0,0,15,8.2,43.76,43.76,0,0,0,9.2,3l10.8,2.4q5.4,1.2,10.2,2.5a27.67,27.67,0,0,1,7.6,3.1A2.19,2.19,0,0,1,180.4,58.2Z"/></g></g></svg>